<svg id="Layer_1" data-name="Layer 1" xmlns="http://www.w3.org/2000/svg" viewBox="0 0 150 85"><defs><style>.cls-1{fill:#c41888;}.cls-2{fill:#fff;}</style></defs><title>logo</title><rect class="cls-1" width="150" height="85"/><polygon class="cls-2" points="76.77 33.28 98.41 17.82 98.41 28.92 98.41 53.66 76.77 68.58 76.77 33.28"/><polygon class="cls-2" points="106.77 25.02 106.77 34 106.77 62.04 73.24 68.58 98.33 27.83 106.77 25.02"/><polygon class="cls-2" points="115.8 33.28 115.8 68.58 76.77 68.58 105.64 35.83 115.8 33.28"/><path class="cls-2" d="M48.13,68.58s-9.94-3.87-12.7-11.36,0-12.57,0-12.57S36.81,40.06,44,36l4.14-1.7h6.08a19.43,19.43,0,0,1,6.63-11.36,29.83,29.83,0,0,1,10.77-6,30.4,30.4,0,0,1,9.94,0c4.42,1,10.22,5.8,10.22,5.8V68.58Z"/><polygon class="cls-1" points="77.84 36.47 95.8 26.38 95.44 50.4 76.81 61.93 77.84 36.47"/><polygon class="cls-1" points="100.49 32.41 104.71 30.65 104.71 56.73 88.64 60.5 99.44 53.39 100.49 32.41"/><polygon class="cls-1" points="109.41 37.51 112.84 37.05 113.28 64.07 97.59 64.27 108.41 60.51 108.73 37.76 109.41 37.51"/></svg>